<svg xmlns="http://www.w3.org/2000/svg" xmlns:xlink="http://www.w3.org/1999/xlink" width="500" zoomAndPan="magnify" viewBox="0 0 375 374.999991" height="500" preserveAspectRatio="xMidYMid meet" version="1.0"><defs><g/><clipPath id="a9e8692270"><path d="M 123 169 L 196 169 L 196 239 L 123 239 Z M 123 169 " clip-rule="nonzero"/></clipPath><clipPath id="8bbbb9c602"><path d="M 29.5 177.246094 L 120.714844 86.03125 L 228.375 193.6875 L 137.15625 284.902344 Z M 29.5 177.246094 " clip-rule="nonzero"/></clipPath><clipPath id="2ee8b0eb21"><path d="M 29.5 177.246094 L 120.714844 86.03125 L 228.375 193.6875 L 137.15625 284.902344 Z M 29.5 177.246094 " clip-rule="nonzero"/></clipPath><clipPath id="5f26379c69"><path d="M 29.5 177.246094 L 120.714844 86.03125 L 228.375 193.6875 L 137.15625 284.902344 Z M 29.5 177.246094 " clip-rule="nonzero"/></clipPath><clipPath id="837a9203bb"><path d="M 72 116 L 152 116 L 152 239 L 72 239 Z M 72 116 " clip-rule="nonzero"/></clipPath><clipPath id="e3ee2ee76e"><path d="M 29.5 177.246094 L 120.714844 86.03125 L 228.375 193.6875 L 137.15625 284.902344 Z M 29.5 177.246094 " clip-rule="nonzero"/></clipPath><clipPath id="3e0509a3ea"><path d="M 29.5 177.246094 L 120.714844 86.03125 L 228.375 193.6875 L 137.15625 284.902344 Z M 29.5 177.246094 " clip-rule="nonzero"/></clipPath><clipPath id="7679285822"><path d="M 29.5 177.246094 L 120.714844 86.03125 L 228.375 193.6875 L 137.15625 284.902344 Z M 29.5 177.246094 " clip-rule="nonzero"/></clipPath><clipPath id="fb6ef24764"><path d="M 232 111.5 L 310 111.5 L 310 242 L 232 242 Z M 232 111.5 " clip-rule="nonzero"/></clipPath><clipPath id="1a5dfab17e"><path d="M 171.445312 111.5 L 279 111.5 L 279 205 L 171.445312 205 Z M 171.445312 111.5 " clip-rule="nonzero"/></clipPath></defs><path fill="#000000" d="M 187.5 375 C 84.144531 375 0 290.855469 0 187.5 C 0 84.144531 84.144531 0 187.5 0 C 290.855469 0 375 84.144531 375 187.5 C 375 290.855469 290.855469 375 187.5 375 Z M 187.5 2.769531 C 85.621094 2.769531 2.769531 85.621094 2.769531 187.5 C 2.769531 289.378906 85.621094 372.230469 187.5 372.230469 C 289.378906 372.230469 372.230469 289.378906 372.230469 187.5 C 372.230469 85.621094 289.378906 2.769531 187.5 2.769531 Z M 187.5 2.769531 " fill-opacity="1" fill-rule="nonzero"/><g clip-path="url(#a9e8692270)"><g clip-path="url(#8bbbb9c602)"><g clip-path="url(#2ee8b0eb21)"><g clip-path="url(#5f26379c69)"><path fill="#000000" d="M 123.710938 190.390625 L 168.230469 190.433594 L 168.25 238.683594 C 183.359375 238.695312 195.597656 226.457031 195.585938 211.347656 L 195.550781 170.074219 L 123.695312 169.992188 Z M 123.710938 190.390625 " fill-opacity="1" fill-rule="nonzero"/></g></g></g></g><g clip-path="url(#837a9203bb)"><g clip-path="url(#e3ee2ee76e)"><g clip-path="url(#3e0509a3ea)"><g clip-path="url(#7679285822)"><path fill="#000000" d="M 149.746094 116.042969 L 113.167969 116.011719 C 90.761719 115.988281 72.636719 134.113281 72.65625 156.523438 L 72.691406 198.050781 C 72.710938 220.460938 90.867188 238.617188 113.277344 238.636719 L 149.855469 238.667969 C 150.835938 238.667969 151.605469 237.902344 151.601562 236.917969 L 151.582031 213.785156 C 151.582031 212.804688 150.8125 212.035156 149.832031 212.035156 L 107.171875 212.019531 C 103.371094 212.015625 100.316406 208.960938 100.3125 205.160156 L 100.289062 150.675781 C 100.285156 146.878906 103.332031 143.828125 107.132812 143.832031 L 149.769531 143.871094 C 150.753906 143.871094 151.519531 143.105469 151.519531 142.121094 L 151.5 117.75 C 151.496094 116.8125 150.726562 116.042969 149.746094 116.042969 Z M 149.746094 116.042969 " fill-opacity="1" fill-rule="nonzero"/></g></g></g></g><g clip-path="url(#fb6ef24764)"><path fill="#000000" d="M 232.074219 224.0625 L 290.386719 111.511719 L 309.953125 111.511719 L 241.855469 242.203125 Z M 232.074219 224.0625 " fill-opacity="1" fill-rule="nonzero"/></g><g clip-path="url(#1a5dfab17e)"><path fill="#ffde59" d="M 171.445312 111.511719 L 278.820312 111.511719 L 269.980469 128.519531 L 200.050781 128.519531 L 211.480469 149.675781 L 258.730469 149.492188 L 230.511719 204.6875 L 221.703125 204.75 L 212.546875 187.75 L 219.941406 187.703125 L 230.300781 166.679688 L 201.320312 166.808594 Z M 171.445312 111.511719 " fill-opacity="1" fill-rule="nonzero"/></g><g fill="#000000" fill-opacity="1"><g transform="translate(49.867962, 261.861252)"><g><path d="M 7.9375 -8.4375 C 7.28125 -9.09375 6.550781 -9.421875 5.75 -9.421875 C 4.988281 -9.421875 4.257812 -9.128906 3.5625 -8.546875 C 2.675781 -7.816406 2.066406 -6.875 1.734375 -5.71875 C 1.609375 -5.300781 1.546875 -4.957031 1.546875 -4.6875 C 1.546875 -4.414062 1.554688 -4.203125 1.578125 -4.046875 C 1.578125 -3.046875 1.914062 -2.273438 2.59375 -1.734375 C 3.238281 -1.234375 4.054688 -0.984375 5.046875 -0.984375 C 6.410156 -1.097656 7.710938 -1.625 8.953125 -2.5625 C 9.304688 -2.820312 9.675781 -3.070312 10.0625 -3.3125 C 10.195312 -3.3125 10.335938 -3.289062 10.484375 -3.25 C 10.628906 -3.207031 10.703125 -3.09375 10.703125 -2.90625 C 9.703125 -2.03125 8.859375 -1.398438 8.171875 -1.015625 C 6.890625 -0.328125 5.734375 0.015625 4.703125 0.015625 C 4.628906 0.015625 4.5625 0.015625 4.5 0.015625 C 3.375 0.015625 2.410156 -0.332031 1.609375 -1.03125 C 0.753906 -1.769531 0.328125 -2.691406 0.328125 -3.796875 C 0.328125 -4.628906 0.476562 -5.425781 0.78125 -6.1875 C 1.082031 -6.945312 1.492188 -7.617188 2.015625 -8.203125 C 2.535156 -8.785156 3.148438 -9.25 3.859375 -9.59375 C 4.578125 -9.9375 5.347656 -10.109375 6.171875 -10.109375 C 6.867188 -10.109375 7.328125 -10.015625 7.546875 -9.828125 C 7.804688 -9.597656 7.9375 -9.132812 7.9375 -8.4375 Z M 7.9375 -8.4375 "/></g></g></g><g fill="#000000" fill-opacity="1"><g transform="translate(60.894629, 261.861252)"><g><path d="M 7.875 -5.546875 C 7.445312 -5.859375 6.898438 -6.015625 6.234375 -6.015625 C 5.609375 -6.015625 5.023438 -5.894531 4.484375 -5.65625 C 3.472656 -5.226562 2.78125 -4.679688 2.40625 -4.015625 C 2.238281 -3.710938 2.15625 -3.390625 2.15625 -3.046875 C 2.15625 -2.984375 2.15625 -2.8125 2.15625 -2.53125 C 2.15625 -2.25 2.207031 -1.875 2.3125 -1.40625 C 2.414062 -0.9375 2.46875 -0.457031 2.46875 0.03125 C 2.25 0.0390625 2.070312 0.0664062 1.9375 0.109375 C 1.8125 0.148438 1.703125 0.171875 1.609375 0.171875 C 1.515625 0.171875 1.4375 0.128906 1.375 0.046875 C 1.3125 -0.0351562 1.238281 -0.191406 1.15625 -0.421875 C 1.144531 -0.484375 1.125 -0.65625 1.09375 -0.9375 C 1.0625 -1.226562 1.019531 -1.578125 0.96875 -1.984375 C 0.925781 -2.390625 0.878906 -2.832031 0.828125 -3.3125 C 0.773438 -3.789062 0.722656 -4.265625 0.671875 -4.734375 C 0.554688 -5.742188 0.46875 -6.488281 0.40625 -6.96875 C 0.40625 -7.207031 0.582031 -7.328125 0.9375 -7.328125 C 1.15625 -7.328125 1.320312 -7.238281 1.4375 -7.0625 C 1.5625 -6.882812 1.660156 -6.679688 1.734375 -6.453125 C 1.804688 -6.222656 1.851562 -6 1.875 -5.78125 C 1.90625 -5.5625 1.929688 -5.40625 1.953125 -5.3125 C 3.285156 -6.507812 4.945312 -7.109375 6.9375 -7.109375 C 7.15625 -7.109375 7.390625 -7.101562 7.640625 -7.09375 C 7.703125 -7.101562 7.773438 -7.109375 7.859375 -7.109375 C 7.953125 -7.109375 8.046875 -7.046875 8.140625 -6.921875 C 8.253906 -6.773438 8.3125 -6.601562 8.3125 -6.40625 C 8.3125 -5.894531 8.164062 -5.609375 7.875 -5.546875 Z M 7.875 -5.546875 "/></g></g></g><g fill="#000000" fill-opacity="1"><g transform="translate(69.487826, 261.861252)"><g><path d="M 6.390625 -2.53125 C 5.628906 -1.332031 4.613281 -0.585938 3.34375 -0.296875 C 3.050781 -0.242188 2.785156 -0.21875 2.546875 -0.21875 C 2.304688 -0.21875 2.109375 -0.21875 1.953125 -0.21875 C 1.796875 -0.226562 1.617188 -0.25 1.421875 -0.28125 C 1.234375 -0.320312 1.054688 -0.390625 0.890625 -0.484375 C 0.515625 -0.703125 0.328125 -1.003906 0.328125 -1.390625 C 0.296875 -1.566406 0.28125 -1.769531 0.28125 -2 C 0.28125 -2.226562 0.328125 -2.53125 0.421875 -2.90625 C 0.523438 -3.28125 0.710938 -3.6875 0.984375 -4.125 C 1.253906 -4.5625 1.582031 -4.960938 1.96875 -5.328125 C 2.769531 -6.097656 3.632812 -6.59375 4.5625 -6.8125 C 4.832031 -6.875 5.082031 -6.90625 5.3125 -6.90625 C 5.539062 -6.90625 5.75 -6.890625 5.9375 -6.859375 C 6.519531 -6.859375 6.914062 -6.457031 7.125 -5.65625 C 7.25 -5.15625 7.320312 -4.445312 7.34375 -3.53125 C 7.375 -2.625 7.398438 -1.925781 7.421875 -1.4375 C 7.453125 -0.945312 7.519531 -0.5 7.625 -0.09375 L 6.71875 -0.09375 C 6.675781 -0.363281 6.644531 -0.601562 6.625 -0.8125 C 6.613281 -1.03125 6.597656 -1.234375 6.578125 -1.421875 C 6.523438 -1.835938 6.460938 -2.207031 6.390625 -2.53125 Z M 6.328125 -4.890625 C 6.328125 -5.472656 6.039062 -5.765625 5.46875 -5.765625 C 5.394531 -5.773438 5.320312 -5.78125 5.25 -5.78125 C 4.507812 -5.78125 3.726562 -5.425781 2.90625 -4.71875 C 2.519531 -4.394531 2.191406 -4.03125 1.921875 -3.625 C 1.515625 -3.039062 1.3125 -2.519531 1.3125 -2.0625 C 1.3125 -1.46875 1.65625 -1.113281 2.34375 -1 C 3.257812 -1.019531 4.128906 -1.4375 4.953125 -2.25 C 5.304688 -2.601562 5.601562 -2.988281 5.84375 -3.40625 C 6.164062 -3.96875 6.328125 -4.460938 6.328125 -4.890625 Z M 6.328125 -4.890625 "/></g></g></g><g fill="#000000" fill-opacity="1"><g transform="translate(77.411817, 261.861252)"><g><path d="M 9.140625 -5.078125 C 9.191406 -5.078125 9.21875 -4.941406 9.21875 -4.671875 C 9.21875 -4.398438 9.226562 -4.210938 9.25 -4.109375 L 4.03125 -3.46875 L 4.3125 -0.09375 L 3.078125 -0.15625 C 3.078125 -1.0625 2.972656 -2.101562 2.765625 -3.28125 L 0.796875 -2.53125 C 0.660156 -2.53125 0.546875 -2.601562 0.453125 -2.75 C 0.296875 -3.019531 0.21875 -3.257812 0.21875 -3.46875 L 2.53125 -4.296875 C 2.320312 -6.035156 2.21875 -7.445312 2.21875 -8.53125 C 2.21875 -9.625 2.304688 -10.472656 2.484375 -11.078125 C 2.671875 -11.691406 2.9375 -12.101562 3.28125 -12.3125 C 3.632812 -12.519531 4.007812 -12.625 4.40625 -12.625 C 4.800781 -12.625 5.203125 -12.535156 5.609375 -12.359375 C 6.023438 -12.191406 6.421875 -11.972656 6.796875 -11.703125 C 7.171875 -11.441406 7.488281 -11.144531 7.75 -10.8125 C 8.019531 -10.488281 8.15625 -10.171875 8.15625 -9.859375 C 8.15625 -9.617188 8.128906 -9.445312 8.078125 -9.34375 C 7.671875 -9.90625 7.179688 -10.410156 6.609375 -10.859375 C 5.910156 -11.390625 5.257812 -11.65625 4.65625 -11.65625 C 4.070312 -11.65625 3.6875 -11.242188 3.5 -10.421875 C 3.40625 -9.992188 3.359375 -9.390625 3.359375 -8.609375 C 3.359375 -7.835938 3.378906 -7.128906 3.421875 -6.484375 C 3.460938 -5.835938 3.582031 -5.191406 3.78125 -4.546875 C 4.414062 -4.546875 5.125 -4.601562 5.90625 -4.71875 C 7.40625 -4.945312 8.484375 -5.066406 9.140625 -5.078125 Z M 9.140625 -5.078125 "/></g></g></g><g fill="#000000" fill-opacity="1"><g transform="translate(86.659009, 261.861252)"><g><path d="M 2.703125 -1.453125 L 2.734375 -3.890625 C 2.734375 -4.273438 2.695312 -4.609375 2.625 -4.890625 L 0.28125 -4.890625 L 0.25 -5.9375 L 2.53125 -5.9375 L 2.53125 -9.859375 C 2.5625 -9.953125 2.617188 -10.039062 2.703125 -10.125 C 2.847656 -10.269531 2.96875 -10.34375 3.0625 -10.34375 C 3.15625 -10.34375 3.238281 -10.332031 3.3125 -10.3125 C 3.382812 -10.289062 3.460938 -10.21875 3.546875 -10.09375 C 3.703125 -9.425781 3.78125 -8.421875 3.78125 -7.078125 C 3.78125 -6.742188 3.796875 -6.410156 3.828125 -6.078125 C 4.160156 -6.117188 4.488281 -6.140625 4.8125 -6.140625 C 4.8125 -6.140625 5.070312 -6.140625 5.59375 -6.140625 C 5.789062 -6.140625 5.96875 -6.148438 6.125 -6.171875 L 6.078125 -5.078125 L 3.859375 -5.140625 L 3.9375 0.109375 C 3.757812 0.191406 3.601562 0.234375 3.46875 0.234375 C 2.957031 0.234375 2.703125 -0.328125 2.703125 -1.453125 Z M 2.703125 -1.453125 "/></g></g></g><g fill="#000000" fill-opacity="1"><g transform="translate(92.955617, 261.861252)"><g><path d="M 1.78125 -7.15625 C 1.914062 -5.257812 2.023438 -3.0625 2.109375 -0.5625 C 2.046875 -0.25 1.804688 -0.09375 1.390625 -0.09375 C 1.273438 -0.09375 1.15625 -0.113281 1.03125 -0.15625 C 0.914062 -0.207031 0.847656 -0.269531 0.828125 -0.34375 L 0.828125 -7.15625 Z M 0.359375 -9.21875 C 0.359375 -9.570312 0.566406 -9.75 0.984375 -9.75 C 1.265625 -9.75 1.488281 -9.6875 1.65625 -9.5625 C 1.6875 -9.457031 1.703125 -9.347656 1.703125 -9.234375 C 1.703125 -9.128906 1.660156 -9.03125 1.578125 -8.9375 C 1.492188 -8.832031 1.367188 -8.78125 1.203125 -8.78125 C 1.046875 -8.78125 0.882812 -8.816406 0.71875 -8.890625 C 0.5625 -8.960938 0.441406 -9.070312 0.359375 -9.21875 Z M 0.359375 -9.21875 "/></g></g></g><g fill="#000000" fill-opacity="1"><g transform="translate(95.313042, 261.861252)"><g><path d="M 6.34375 -3.328125 C 6.34375 -4.535156 6.273438 -5.425781 6.140625 -6 C 6.222656 -6.144531 6.101562 -6.21875 5.78125 -6.21875 C 5.4375 -6.21875 4.988281 -6.128906 4.4375 -5.953125 C 3.894531 -5.785156 3.453125 -5.617188 3.109375 -5.453125 C 2.285156 -5.054688 1.828125 -4.671875 1.734375 -4.296875 L 1.734375 -0.15625 L 0.71875 -0.15625 C 0.582031 -0.5 0.515625 -1.46875 0.515625 -3.0625 C 0.515625 -4.476562 0.539062 -5.519531 0.59375 -6.1875 C 0.65625 -6.863281 0.703125 -7.242188 0.734375 -7.328125 C 0.992188 -7.503906 1.207031 -7.59375 1.375 -7.59375 C 1.625 -7.59375 1.75 -7.289062 1.75 -6.6875 C 1.75 -6.457031 1.734375 -6.234375 1.703125 -6.015625 C 1.679688 -5.796875 1.671875 -5.644531 1.671875 -5.5625 C 3.316406 -6.769531 4.585938 -7.375 5.484375 -7.375 C 6.515625 -7.375 7.097656 -6.550781 7.234375 -4.90625 C 7.296875 -4.320312 7.328125 -3.519531 7.328125 -2.5 L 7.3125 -1.296875 C 7.3125 -0.847656 7.320312 -0.414062 7.34375 0 C 7.25 0.0625 7.171875 0.09375 7.109375 0.09375 C 7.078125 0.0820312 7.007812 0.0664062 6.90625 0.046875 C 6.800781 0.0234375 6.671875 0.0078125 6.515625 0 C 6.410156 -0.40625 6.351562 -0.816406 6.34375 -1.234375 C 6.332031 -1.660156 6.328125 -2.050781 6.328125 -2.40625 Z M 6.34375 -3.328125 "/></g></g></g><g fill="#000000" fill-opacity="1"><g transform="translate(103.100151, 261.861252)"><g><path d="M 4.8125 6.515625 L 4.59375 6.5 C 4.289062 6.5 3.96875 6.519531 3.625 6.5625 L 3.046875 6.5625 C 2.429688 6.5625 1.953125 6.441406 1.609375 6.203125 C 1.429688 6.085938 1.34375 5.90625 1.34375 5.65625 L 4.84375 5.484375 C 5.914062 5.460938 6.453125 4.882812 6.453125 3.75 C 6.453125 3.71875 6.453125 3.648438 6.453125 3.546875 C 6.453125 3.453125 6.453125 3.242188 6.453125 2.921875 L 6.53125 -1.984375 C 6.53125 -2.148438 6.523438 -2.289062 6.515625 -2.40625 C 4.867188 -0.875 3.285156 -0.109375 1.765625 -0.109375 C 1.628906 -0.109375 1.5 -0.113281 1.375 -0.125 C 0.6875 -0.125 0.34375 -0.421875 0.34375 -1.015625 C 0.363281 -1.484375 0.5 -2 0.75 -2.5625 C 1.007812 -3.125 1.335938 -3.664062 1.734375 -4.1875 C 2.140625 -4.707031 2.597656 -5.175781 3.109375 -5.59375 C 3.890625 -6.238281 4.644531 -6.5625 5.375 -6.5625 C 6.21875 -6.5625 6.914062 -6.109375 7.46875 -5.203125 C 7.632812 -2.785156 7.71875 -1.070312 7.71875 -0.0625 C 7.71875 0.945312 7.703125 1.773438 7.671875 2.421875 C 7.640625 3.078125 7.566406 3.671875 7.453125 4.203125 C 7.347656 4.742188 7.207031 5.171875 7.03125 5.484375 C 6.863281 5.804688 6.664062 6.035156 6.4375 6.171875 C 6.050781 6.398438 5.507812 6.515625 4.8125 6.515625 Z M 5.71875 -5.453125 C 5.59375 -5.484375 5.421875 -5.5 5.203125 -5.5 C 4.992188 -5.5 4.710938 -5.40625 4.359375 -5.21875 C 4.015625 -5.039062 3.6875 -4.804688 3.375 -4.515625 C 3.0625 -4.234375 2.769531 -3.914062 2.5 -3.5625 C 1.820312 -2.6875 1.484375 -1.988281 1.484375 -1.46875 C 1.484375 -1.3125 1.53125 -1.191406 1.625 -1.109375 C 1.695312 -1.066406 1.785156 -1.046875 1.890625 -1.046875 C 1.992188 -1.046875 2.144531 -1.0625 2.34375 -1.09375 C 2.550781 -1.132812 2.832031 -1.226562 3.1875 -1.375 C 3.539062 -1.519531 3.90625 -1.707031 4.28125 -1.9375 C 4.65625 -2.175781 4.992188 -2.4375 5.296875 -2.71875 C 6.003906 -3.375 6.359375 -4.007812 6.359375 -4.625 C 6.359375 -5 6.144531 -5.273438 5.71875 -5.453125 Z M 5.71875 -5.453125 "/></g></g></g><g fill="#000000" fill-opacity="1"><g transform="translate(111.130607, 261.861252)"><g/></g></g><g fill="#000000" fill-opacity="1"><g transform="translate(117.366378, 261.861252)"><g><path d="M 0.234375 -1.328125 C 0.234375 -1.515625 0.3125 -1.679688 0.46875 -1.828125 C 0.625 -1.972656 0.742188 -2.070312 0.828125 -2.125 C 0.910156 -2.1875 0.96875 -2.234375 1 -2.265625 C 1.050781 -1.335938 1.675781 -0.875 2.875 -0.875 C 3.820312 -0.875 4.921875 -1.171875 6.171875 -1.765625 C 7.066406 -2.171875 7.664062 -2.585938 7.96875 -3.015625 C 8.070312 -3.140625 8.125 -3.242188 8.125 -3.328125 C 8.125 -3.421875 8.109375 -3.492188 8.078125 -3.546875 L 1.765625 -4.953125 C 1.578125 -4.992188 1.398438 -5.082031 1.234375 -5.21875 C 0.921875 -5.4375 0.765625 -5.640625 0.765625 -5.828125 C 0.765625 -6.523438 1.257812 -7.160156 2.25 -7.734375 C 3.34375 -8.347656 4.804688 -8.8125 6.640625 -9.125 C 7.054688 -9.195312 7.367188 -9.238281 7.578125 -9.25 C 7.640625 -9.226562 7.734375 -9.207031 7.859375 -9.1875 C 7.984375 -9.175781 8.113281 -9.15625 8.25 -9.125 C 8.5625 -9.050781 8.691406 -8.921875 8.640625 -8.734375 C 8.640625 -8.390625 7.976562 -8.113281 6.65625 -7.90625 C 4.957031 -7.65625 3.894531 -7.441406 3.46875 -7.265625 C 3.050781 -7.097656 2.75 -6.921875 2.5625 -6.734375 C 2.375 -6.554688 2.273438 -6.335938 2.265625 -6.078125 C 2.265625 -6.035156 2.378906 -5.984375 2.609375 -5.921875 C 2.847656 -5.859375 3.128906 -5.78125 3.453125 -5.6875 C 3.773438 -5.601562 4.195312 -5.492188 4.71875 -5.359375 C 5.976562 -5.015625 7.519531 -4.578125 9.34375 -4.046875 C 9.445312 -3.828125 9.5 -3.617188 9.5 -3.421875 C 9.5 -2.878906 9.179688 -2.363281 8.546875 -1.875 C 7.835938 -1.3125 6.851562 -0.835938 5.59375 -0.453125 C 4.550781 -0.140625 3.722656 0.015625 3.109375 0.015625 C 2.585938 0.015625 2.09375 -0.0703125 1.625 -0.25 C 1.15625 -0.4375 0.804688 -0.613281 0.578125 -0.78125 C 0.347656 -0.957031 0.234375 -1.140625 0.234375 -1.328125 Z M 0.234375 -1.328125 "/></g></g></g><g fill="#000000" fill-opacity="1"><g transform="translate(127.37403, 261.861252)"><g><path d="M 0.796875 -2.890625 C 0.796875 -4.085938 1.3125 -5.050781 2.34375 -5.78125 C 3.164062 -6.351562 4.15625 -6.703125 5.3125 -6.828125 C 5.375 -6.828125 5.515625 -6.828125 5.734375 -6.828125 C 5.953125 -6.828125 6.253906 -6.765625 6.640625 -6.640625 C 7.460938 -6.347656 8.03125 -5.84375 8.34375 -5.125 C 8.457031 -4.84375 8.515625 -4.601562 8.515625 -4.40625 C 8.515625 -4.207031 8.507812 -4.066406 8.5 -3.984375 C 8.5 -2.710938 8.019531 -1.710938 7.0625 -0.984375 C 6.164062 -0.316406 5.050781 0.015625 3.71875 0.015625 C 2.75 0.015625 2.019531 -0.207031 1.53125 -0.65625 C 1.039062 -1.101562 0.796875 -1.847656 0.796875 -2.890625 Z M 1.84375 -2.53125 C 1.84375 -1.894531 2.007812 -1.46875 2.34375 -1.25 C 2.59375 -1.082031 3.015625 -1 3.609375 -1 C 4.210938 -1 4.742188 -1.046875 5.203125 -1.140625 C 5.660156 -1.234375 6.066406 -1.390625 6.421875 -1.609375 C 7.179688 -2.097656 7.5625 -2.851562 7.5625 -3.875 C 7.5625 -4.488281 7.398438 -4.988281 7.078125 -5.375 C 6.722656 -5.789062 6.253906 -6 5.671875 -6 C 5.273438 -5.925781 4.875 -5.847656 4.46875 -5.765625 C 4.070312 -5.679688 3.695312 -5.523438 3.34375 -5.296875 C 2.570312 -4.796875 2.070312 -3.875 1.84375 -2.53125 Z M 1.84375 -2.53125 "/></g></g></g><g fill="#000000" fill-opacity="1"><g transform="translate(136.134527, 261.861252)"><g><path d="M 0.6875 -5.890625 C 0.664062 -6.441406 0.644531 -6.929688 0.625 -7.359375 C 0.601562 -7.796875 0.585938 -8.117188 0.578125 -8.328125 C 0.578125 -8.535156 0.492188 -9.046875 0.328125 -9.859375 C 0.421875 -9.984375 0.507812 -10.097656 0.59375 -10.203125 C 0.6875 -10.316406 0.8125 -10.375 0.96875 -10.375 C 1.320312 -10.375 1.597656 -8.878906 1.796875 -5.890625 C 1.898438 -4.148438 1.953125 -2.414062 1.953125 -0.6875 C 1.953125 -0.21875 1.625 0.015625 0.96875 0.015625 L 0.859375 0 C 0.859375 -0.53125 0.84375 -1.203125 0.8125 -2.015625 C 0.78125 -2.835938 0.753906 -3.550781 0.734375 -4.15625 C 0.722656 -4.769531 0.707031 -5.347656 0.6875 -5.890625 Z M 0.6875 -5.890625 "/></g></g></g><g fill="#000000" fill-opacity="1"><g transform="translate(138.583208, 261.861252)"><g><path d="M 0.328125 -2.015625 C 0.328125 -2.179688 0.316406 -2.410156 0.296875 -2.703125 C 0.273438 -2.992188 0.253906 -3.3125 0.234375 -3.65625 C 0.210938 -4 0.203125 -4.347656 0.203125 -4.703125 C 0.203125 -5.054688 0.226562 -5.378906 0.28125 -5.671875 C 0.414062 -6.328125 0.691406 -6.65625 1.109375 -6.65625 C 1.390625 -6.582031 1.578125 -6.484375 1.671875 -6.359375 C 1.773438 -6.234375 1.828125 -6.082031 1.828125 -5.90625 C 1.828125 -5.726562 1.78125 -5.507812 1.6875 -5.25 C 1.351562 -4.363281 1.1875 -3.566406 1.1875 -2.859375 C 1.1875 -2.628906 1.203125 -2.378906 1.234375 -2.109375 C 1.390625 -1.429688 1.945312 -1.09375 2.90625 -1.09375 C 3.40625 -1.09375 3.878906 -1.179688 4.328125 -1.359375 C 5.171875 -1.671875 5.75 -2.039062 6.0625 -2.46875 C 6.144531 -2.9375 6.1875 -3.34375 6.1875 -3.6875 C 6.1875 -4.039062 6.171875 -4.351562 6.140625 -4.625 C 6.117188 -4.894531 6.09375 -5.195312 6.0625 -5.53125 C 6.03125 -5.863281 6.007812 -6.226562 6 -6.625 C 6.125 -6.675781 6.25 -6.703125 6.375 -6.703125 C 6.507812 -6.703125 6.644531 -6.632812 6.78125 -6.5 C 6.914062 -6.375 7.03125 -6.128906 7.125 -5.765625 C 7.21875 -5.398438 7.28125 -4.972656 7.3125 -4.484375 C 7.34375 -3.992188 7.359375 -3.484375 7.359375 -2.953125 C 7.367188 -2.421875 7.375 -1.910156 7.375 -1.421875 C 7.375 -0.929688 7.394531 -0.507812 7.4375 -0.15625 C 7.3125 -0.0390625 7.195312 0.015625 7.09375 0.015625 C 6.6875 0.015625 6.382812 -0.390625 6.1875 -1.203125 C 6.0625 -1.085938 5.835938 -0.953125 5.515625 -0.796875 C 4.847656 -0.429688 4.0625 -0.1875 3.15625 -0.0625 C 2.976562 -0.0390625 2.78125 -0.03125 2.5625 -0.03125 C 2.351562 -0.03125 2.085938 -0.0703125 1.765625 -0.15625 C 1.453125 -0.238281 1.148438 -0.425781 0.859375 -0.71875 C 0.578125 -1.007812 0.398438 -1.441406 0.328125 -2.015625 Z M 0.328125 -2.015625 "/></g></g></g><g fill="#000000" fill-opacity="1"><g transform="translate(146.49199, 261.861252)"><g><path d="M 2.703125 -1.453125 L 2.734375 -3.890625 C 2.734375 -4.273438 2.695312 -4.609375 2.625 -4.890625 L 0.28125 -4.890625 L 0.25 -5.9375 L 2.53125 -5.9375 L 2.53125 -9.859375 C 2.5625 -9.953125 2.617188 -10.039062 2.703125 -10.125 C 2.847656 -10.269531 2.96875 -10.34375 3.0625 -10.34375 C 3.15625 -10.34375 3.238281 -10.332031 3.3125 -10.3125 C 3.382812 -10.289062 3.460938 -10.21875 3.546875 -10.09375 C 3.703125 -9.425781 3.78125 -8.421875 3.78125 -7.078125 C 3.78125 -6.742188 3.796875 -6.410156 3.828125 -6.078125 C 4.160156 -6.117188 4.488281 -6.140625 4.8125 -6.140625 C 4.8125 -6.140625 5.070312 -6.140625 5.59375 -6.140625 C 5.789062 -6.140625 5.96875 -6.148438 6.125 -6.171875 L 6.078125 -5.078125 L 3.859375 -5.140625 L 3.9375 0.109375 C 3.757812 0.191406 3.601562 0.234375 3.46875 0.234375 C 2.957031 0.234375 2.703125 -0.328125 2.703125 -1.453125 Z M 2.703125 -1.453125 "/></g></g></g><g fill="#000000" fill-opacity="1"><g transform="translate(152.788598, 261.861252)"><g><path d="M 1.78125 -7.15625 C 1.914062 -5.257812 2.023438 -3.0625 2.109375 -0.5625 C 2.046875 -0.25 1.804688 -0.09375 1.390625 -0.09375 C 1.273438 -0.09375 1.15625 -0.113281 1.03125 -0.15625 C 0.914062 -0.207031 0.847656 -0.269531 0.828125 -0.34375 L 0.828125 -7.15625 Z M 0.359375 -9.21875 C 0.359375 -9.570312 0.566406 -9.75 0.984375 -9.75 C 1.265625 -9.75 1.488281 -9.6875 1.65625 -9.5625 C 1.6875 -9.457031 1.703125 -9.347656 1.703125 -9.234375 C 1.703125 -9.128906 1.660156 -9.03125 1.578125 -8.9375 C 1.492188 -8.832031 1.367188 -8.78125 1.203125 -8.78125 C 1.046875 -8.78125 0.882812 -8.816406 0.71875 -8.890625 C 0.5625 -8.960938 0.441406 -9.070312 0.359375 -9.21875 Z M 0.359375 -9.21875 "/></g></g></g><g fill="#000000" fill-opacity="1"><g transform="translate(155.146023, 261.861252)"><g><path d="M 0.796875 -2.890625 C 0.796875 -4.085938 1.3125 -5.050781 2.34375 -5.78125 C 3.164062 -6.351562 4.15625 -6.703125 5.3125 -6.828125 C 5.375 -6.828125 5.515625 -6.828125 5.734375 -6.828125 C 5.953125 -6.828125 6.253906 -6.765625 6.640625 -6.640625 C 7.460938 -6.347656 8.03125 -5.84375 8.34375 -5.125 C 8.457031 -4.84375 8.515625 -4.601562 8.515625 -4.40625 C 8.515625 -4.207031 8.507812 -4.066406 8.5 -3.984375 C 8.5 -2.710938 8.019531 -1.710938 7.0625 -0.984375 C 6.164062 -0.316406 5.050781 0.015625 3.71875 0.015625 C 2.75 0.015625 2.019531 -0.207031 1.53125 -0.65625 C 1.039062 -1.101562 0.796875 -1.847656 0.796875 -2.890625 Z M 1.84375 -2.53125 C 1.84375 -1.894531 2.007812 -1.46875 2.34375 -1.25 C 2.59375 -1.082031 3.015625 -1 3.609375 -1 C 4.210938 -1 4.742188 -1.046875 5.203125 -1.140625 C 5.660156 -1.234375 6.066406 -1.390625 6.421875 -1.609375 C 7.179688 -2.097656 7.5625 -2.851562 7.5625 -3.875 C 7.5625 -4.488281 7.398438 -4.988281 7.078125 -5.375 C 6.722656 -5.789062 6.253906 -6 5.671875 -6 C 5.273438 -5.925781 4.875 -5.847656 4.46875 -5.765625 C 4.070312 -5.679688 3.695312 -5.523438 3.34375 -5.296875 C 2.570312 -4.796875 2.070312 -3.875 1.84375 -2.53125 Z M 1.84375 -2.53125 "/></g></g></g><g fill="#000000" fill-opacity="1"><g transform="translate(163.906521, 261.861252)"><g><path d="M 6.34375 -3.328125 C 6.34375 -4.535156 6.273438 -5.425781 6.140625 -6 C 6.222656 -6.144531 6.101562 -6.21875 5.78125 -6.21875 C 5.4375 -6.21875 4.988281 -6.128906 4.4375 -5.953125 C 3.894531 -5.785156 3.453125 -5.617188 3.109375 -5.453125 C 2.285156 -5.054688 1.828125 -4.671875 1.734375 -4.296875 L 1.734375 -0.15625 L 0.71875 -0.15625 C 0.582031 -0.5 0.515625 -1.46875 0.515625 -3.0625 C 0.515625 -4.476562 0.539062 -5.519531 0.59375 -6.1875 C 0.65625 -6.863281 0.703125 -7.242188 0.734375 -7.328125 C 0.992188 -7.503906 1.207031 -7.59375 1.375 -7.59375 C 1.625 -7.59375 1.75 -7.289062 1.75 -6.6875 C 1.75 -6.457031 1.734375 -6.234375 1.703125 -6.015625 C 1.679688 -5.796875 1.671875 -5.644531 1.671875 -5.5625 C 3.316406 -6.769531 4.585938 -7.375 5.484375 -7.375 C 6.515625 -7.375 7.097656 -6.550781 7.234375 -4.90625 C 7.296875 -4.320312 7.328125 -3.519531 7.328125 -2.5 L 7.3125 -1.296875 C 7.3125 -0.847656 7.320312 -0.414062 7.34375 0 C 7.25 0.0625 7.171875 0.09375 7.109375 0.09375 C 7.078125 0.0820312 7.007812 0.0664062 6.90625 0.046875 C 6.800781 0.0234375 6.671875 0.0078125 6.515625 0 C 6.410156 -0.40625 6.351562 -0.816406 6.34375 -1.234375 C 6.332031 -1.660156 6.328125 -2.050781 6.328125 -2.40625 Z M 6.34375 -3.328125 "/></g></g></g><g fill="#000000" fill-opacity="1"><g transform="translate(171.69363, 261.861252)"><g><path d="M 5.609375 -3.921875 C 6.722656 -3.921875 7.28125 -3.640625 7.28125 -3.078125 C 7.28125 -2.648438 6.972656 -2.148438 6.359375 -1.578125 C 5.429688 -0.734375 4.1875 -0.0625 2.625 0.4375 C 2.5625 0.4375 2.484375 0.363281 2.390625 0.21875 C 2.304688 0.0820312 2.238281 -0.0195312 2.1875 -0.09375 C 2.144531 -0.175781 2.113281 -0.226562 2.09375 -0.25 C 3.257812 -0.632812 4.21875 -1.097656 4.96875 -1.640625 C 5.476562 -2.003906 5.734375 -2.300781 5.734375 -2.53125 C 5.734375 -2.769531 5.429688 -2.890625 4.828125 -2.890625 C 4.234375 -2.890625 3.359375 -2.75 2.203125 -2.46875 C 1.679688 -2.488281 1.226562 -2.675781 0.84375 -3.03125 C 0.5 -3.34375 0.328125 -3.65625 0.328125 -3.96875 C 0.328125 -4.289062 0.414062 -4.585938 0.59375 -4.859375 C 0.78125 -5.128906 1.023438 -5.378906 1.328125 -5.609375 C 1.640625 -5.847656 2 -6.0625 2.40625 -6.25 C 3.394531 -6.726562 4.421875 -6.96875 5.484375 -6.96875 C 5.804688 -6.96875 6.113281 -6.9375 6.40625 -6.875 C 6.644531 -6.875 6.785156 -6.765625 6.828125 -6.546875 C 6.867188 -6.335938 6.890625 -5.988281 6.890625 -5.5 C 6.296875 -5.78125 5.625 -5.921875 4.875 -5.921875 C 3.9375 -5.921875 3.164062 -5.734375 2.5625 -5.359375 C 1.925781 -4.992188 1.597656 -4.515625 1.578125 -3.921875 C 1.578125 -3.640625 1.785156 -3.5 2.203125 -3.5 L 3.3125 -3.625 C 4.269531 -3.820312 5.035156 -3.921875 5.609375 -3.921875 Z M 5.609375 -3.921875 "/></g></g></g><g fill="#000000" fill-opacity="1"><g transform="translate(179.511157, 261.861252)"><g><path d="M 0.734375 -1.3125 C 0.796875 -1.4375 0.863281 -1.507812 0.9375 -1.53125 C 1.019531 -1.550781 1.109375 -1.5625 1.203125 -1.5625 C 1.296875 -1.5625 1.378906 -1.550781 1.453125 -1.53125 C 1.597656 -1.488281 1.703125 -1.40625 1.765625 -1.28125 C 1.765625 -1.257812 1.765625 -1.226562 1.765625 -1.1875 C 1.765625 -1.15625 1.742188 -1.09375 1.703125 -1 C 1.660156 -0.90625 1.597656 -0.773438 1.515625 -0.609375 C 1.429688 -0.453125 1.335938 -0.289062 1.234375 -0.125 C 1.128906 0.0390625 1.023438 0.195312 0.921875 0.34375 C 0.828125 0.5 0.753906 0.617188 0.703125 0.703125 C 0.660156 0.785156 0.601562 0.859375 0.53125 0.921875 C 0.289062 1.171875 0.0625 1.296875 -0.15625 1.296875 C -0.21875 1.296875 -0.273438 1.285156 -0.328125 1.265625 Z M 0.734375 -1.3125 "/></g></g></g><g fill="#000000" fill-opacity="1"><g transform="translate(182.279231, 261.861252)"><g/></g></g><g fill="#000000" fill-opacity="1"><g transform="translate(188.515002, 261.861252)"><g><path d="M 0.234375 -1.328125 C 0.234375 -1.515625 0.3125 -1.679688 0.46875 -1.828125 C 0.625 -1.972656 0.742188 -2.070312 0.828125 -2.125 C 0.910156 -2.1875 0.96875 -2.234375 1 -2.265625 C 1.050781 -1.335938 1.675781 -0.875 2.875 -0.875 C 3.820312 -0.875 4.921875 -1.171875 6.171875 -1.765625 C 7.066406 -2.171875 7.664062 -2.585938 7.96875 -3.015625 C 8.070312 -3.140625 8.125 -3.242188 8.125 -3.328125 C 8.125 -3.421875 8.109375 -3.492188 8.078125 -3.546875 L 1.765625 -4.953125 C 1.578125 -4.992188 1.398438 -5.082031 1.234375 -5.21875 C 0.921875 -5.4375 0.765625 -5.640625 0.765625 -5.828125 C 0.765625 -6.523438 1.257812 -7.160156 2.25 -7.734375 C 3.34375 -8.347656 4.804688 -8.8125 6.640625 -9.125 C 7.054688 -9.195312 7.367188 -9.238281 7.578125 -9.25 C 7.640625 -9.226562 7.734375 -9.207031 7.859375 -9.1875 C 7.984375 -9.175781 8.113281 -9.15625 8.25 -9.125 C 8.5625 -9.050781 8.691406 -8.921875 8.640625 -8.734375 C 8.640625 -8.390625 7.976562 -8.113281 6.65625 -7.90625 C 4.957031 -7.65625 3.894531 -7.441406 3.46875 -7.265625 C 3.050781 -7.097656 2.75 -6.921875 2.5625 -6.734375 C 2.375 -6.554688 2.273438 -6.335938 2.265625 -6.078125 C 2.265625 -6.035156 2.378906 -5.984375 2.609375 -5.921875 C 2.847656 -5.859375 3.128906 -5.78125 3.453125 -5.6875 C 3.773438 -5.601562 4.195312 -5.492188 4.71875 -5.359375 C 5.976562 -5.015625 7.519531 -4.578125 9.34375 -4.046875 C 9.445312 -3.828125 9.5 -3.617188 9.5 -3.421875 C 9.5 -2.878906 9.179688 -2.363281 8.546875 -1.875 C 7.835938 -1.3125 6.851562 -0.835938 5.59375 -0.453125 C 4.550781 -0.140625 3.722656 0.015625 3.109375 0.015625 C 2.585938 0.015625 2.09375 -0.0703125 1.625 -0.25 C 1.15625 -0.4375 0.804688 -0.613281 0.578125 -0.78125 C 0.347656 -0.957031 0.234375 -1.140625 0.234375 -1.328125 Z M 0.234375 -1.328125 "/></g></g></g><g fill="#000000" fill-opacity="1"><g transform="translate(198.522653, 261.861252)"><g><path d="M 7.5625 -0.21875 C 7.46875 -0.0390625 7.226562 0.046875 6.84375 0.046875 C 6.46875 0.046875 6.28125 -0.0859375 6.28125 -0.359375 C 6.28125 -1.554688 6.253906 -2.378906 6.203125 -2.828125 C 6.109375 -3.816406 5.914062 -4.34375 5.625 -4.40625 C 4.894531 -4.550781 4.300781 -4.625 3.84375 -4.625 C 3.382812 -4.625 3.003906 -4.484375 2.703125 -4.203125 C 2.398438 -3.921875 2.171875 -3.457031 2.015625 -2.8125 C 1.859375 -2.175781 1.742188 -1.273438 1.671875 -0.109375 L 0.5 -0.109375 C 0.519531 -0.679688 0.53125 -1.21875 0.53125 -1.71875 C 0.53125 -2.21875 0.519531 -2.804688 0.5 -3.484375 C 0.476562 -4.171875 0.453125 -4.921875 0.421875 -5.734375 C 0.367188 -6.671875 0.34375 -7.457031 0.34375 -8.09375 C 0.34375 -8.738281 0.382812 -9.332031 0.46875 -9.875 C 0.570312 -10.0625 0.71875 -10.15625 0.90625 -10.15625 C 1.144531 -10.15625 1.328125 -10.070312 1.453125 -9.90625 C 1.585938 -9.738281 1.660156 -9.59375 1.671875 -9.46875 L 1.59375 -6.953125 C 1.59375 -6.003906 1.640625 -5.300781 1.734375 -4.84375 C 2.648438 -5.445312 3.59375 -5.75 4.5625 -5.75 C 4.875 -5.75 5.207031 -5.722656 5.5625 -5.671875 C 6.320312 -5.273438 6.820312 -4.851562 7.0625 -4.40625 C 7.164062 -4.175781 7.234375 -3.925781 7.265625 -3.65625 C 7.296875 -3.394531 7.316406 -3.097656 7.328125 -2.765625 C 7.390625 -1.609375 7.46875 -0.757812 7.5625 -0.21875 Z M 7.5625 -0.21875 "/></g></g></g><g fill="#000000" fill-opacity="1"><g transform="translate(206.233716, 261.861252)"><g><path d="M 6.390625 -2.53125 C 5.628906 -1.332031 4.613281 -0.585938 3.34375 -0.296875 C 3.050781 -0.242188 2.785156 -0.21875 2.546875 -0.21875 C 2.304688 -0.21875 2.109375 -0.21875 1.953125 -0.21875 C 1.796875 -0.226562 1.617188 -0.25 1.421875 -0.28125 C 1.234375 -0.320312 1.054688 -0.390625 0.890625 -0.484375 C 0.515625 -0.703125 0.328125 -1.003906 0.328125 -1.390625 C 0.296875 -1.566406 0.28125 -1.769531 0.28125 -2 C 0.28125 -2.226562 0.328125 -2.53125 0.421875 -2.90625 C 0.523438 -3.28125 0.710938 -3.6875 0.984375 -4.125 C 1.253906 -4.5625 1.582031 -4.960938 1.96875 -5.328125 C 2.769531 -6.097656 3.632812 -6.59375 4.5625 -6.8125 C 4.832031 -6.875 5.082031 -6.90625 5.3125 -6.90625 C 5.539062 -6.90625 5.75 -6.890625 5.9375 -6.859375 C 6.519531 -6.859375 6.914062 -6.457031 7.125 -5.65625 C 7.25 -5.15625 7.320312 -4.445312 7.34375 -3.53125 C 7.375 -2.625 7.398438 -1.925781 7.421875 -1.4375 C 7.453125 -0.945312 7.519531 -0.5 7.625 -0.09375 L 6.71875 -0.09375 C 6.675781 -0.363281 6.644531 -0.601562 6.625 -0.8125 C 6.613281 -1.03125 6.597656 -1.234375 6.578125 -1.421875 C 6.523438 -1.835938 6.460938 -2.207031 6.390625 -2.53125 Z M 6.328125 -4.890625 C 6.328125 -5.472656 6.039062 -5.765625 5.46875 -5.765625 C 5.394531 -5.773438 5.320312 -5.78125 5.25 -5.78125 C 4.507812 -5.78125 3.726562 -5.425781 2.90625 -4.71875 C 2.519531 -4.394531 2.191406 -4.03125 1.921875 -3.625 C 1.515625 -3.039062 1.3125 -2.519531 1.3125 -2.0625 C 1.3125 -1.46875 1.65625 -1.113281 2.34375 -1 C 3.257812 -1.019531 4.128906 -1.4375 4.953125 -2.25 C 5.304688 -2.601562 5.601562 -2.988281 5.84375 -3.40625 C 6.164062 -3.96875 6.328125 -4.460938 6.328125 -4.890625 Z M 6.328125 -4.890625 "/></g></g></g><g fill="#000000" fill-opacity="1"><g transform="translate(214.157708, 261.861252)"><g><path d="M 1.875 -6.09375 C 3.25 -6.570312 4.441406 -6.8125 5.453125 -6.8125 C 6.722656 -6.8125 7.570312 -6.476562 8 -5.8125 C 8.195312 -5.5 8.296875 -5.160156 8.296875 -4.796875 C 8.296875 -4.285156 8.132812 -3.757812 7.8125 -3.21875 C 7.488281 -2.6875 7.066406 -2.203125 6.546875 -1.765625 C 5.316406 -0.765625 3.820312 -0.140625 2.0625 0.109375 C 2.0625 0.222656 2.0625 0.398438 2.0625 0.640625 C 2.070312 0.890625 2.078125 1.164062 2.078125 1.46875 C 2.085938 1.78125 2.09375 2.109375 2.09375 2.453125 C 2.101562 2.796875 2.113281 3.125 2.125 3.4375 C 2.15625 4.21875 2.175781 4.660156 2.1875 4.765625 C 2.207031 4.878906 2.21875 4.972656 2.21875 5.046875 C 2.21875 5.304688 2.132812 5.5 1.96875 5.625 C 1.8125 5.75 1.601562 5.8125 1.34375 5.8125 C 1.289062 5.8125 1.238281 5.8125 1.1875 5.8125 L 0.9375 -6.421875 C 1.03125 -6.554688 1.148438 -6.617188 1.296875 -6.609375 C 1.453125 -6.597656 1.578125 -6.554688 1.671875 -6.484375 C 1.765625 -6.410156 1.832031 -6.28125 1.875 -6.09375 Z M 6.3125 -5.5625 C 5.976562 -5.738281 5.617188 -5.828125 5.234375 -5.828125 C 4.859375 -5.828125 4.484375 -5.789062 4.109375 -5.71875 C 3.253906 -5.5625 2.625 -5.203125 2.21875 -4.640625 C 2.039062 -4.378906 1.953125 -4.054688 1.953125 -3.671875 C 1.953125 -3.628906 1.953125 -3.585938 1.953125 -3.546875 L 1.953125 -0.90625 C 4.035156 -1.375 5.515625 -2.023438 6.390625 -2.859375 C 6.898438 -3.335938 7.15625 -3.828125 7.15625 -4.328125 C 7.15625 -4.867188 6.875 -5.28125 6.3125 -5.5625 Z M 6.3125 -5.5625 "/></g></g></g><g fill="#000000" fill-opacity="1"><g transform="translate(222.82695, 261.861252)"><g><path d="M 1.78125 -7.15625 C 1.914062 -5.257812 2.023438 -3.0625 2.109375 -0.5625 C 2.046875 -0.25 1.804688 -0.09375 1.390625 -0.09375 C 1.273438 -0.09375 1.15625 -0.113281 1.03125 -0.15625 C 0.914062 -0.207031 0.847656 -0.269531 0.828125 -0.34375 L 0.828125 -7.15625 Z M 0.359375 -9.21875 C 0.359375 -9.570312 0.566406 -9.75 0.984375 -9.75 C 1.265625 -9.75 1.488281 -9.6875 1.65625 -9.5625 C 1.6875 -9.457031 1.703125 -9.347656 1.703125 -9.234375 C 1.703125 -9.128906 1.660156 -9.03125 1.578125 -8.9375 C 1.492188 -8.832031 1.367188 -8.78125 1.203125 -8.78125 C 1.046875 -8.78125 0.882812 -8.816406 0.71875 -8.890625 C 0.5625 -8.960938 0.441406 -9.070312 0.359375 -9.21875 Z M 0.359375 -9.21875 "/></g></g></g><g fill="#000000" fill-opacity="1"><g transform="translate(225.184376, 261.861252)"><g><path d="M 6.34375 -3.328125 C 6.34375 -4.535156 6.273438 -5.425781 6.140625 -6 C 6.222656 -6.144531 6.101562 -6.21875 5.78125 -6.21875 C 5.4375 -6.21875 4.988281 -6.128906 4.4375 -5.953125 C 3.894531 -5.785156 3.453125 -5.617188 3.109375 -5.453125 C 2.285156 -5.054688 1.828125 -4.671875 1.734375 -4.296875 L 1.734375 -0.15625 L 0.71875 -0.15625 C 0.582031 -0.5 0.515625 -1.46875 0.515625 -3.0625 C 0.515625 -4.476562 0.539062 -5.519531 0.59375 -6.1875 C 0.65625 -6.863281 0.703125 -7.242188 0.734375 -7.328125 C 0.992188 -7.503906 1.207031 -7.59375 1.375 -7.59375 C 1.625 -7.59375 1.75 -7.289062 1.75 -6.6875 C 1.75 -6.457031 1.734375 -6.234375 1.703125 -6.015625 C 1.679688 -5.796875 1.671875 -5.644531 1.671875 -5.5625 C 3.316406 -6.769531 4.585938 -7.375 5.484375 -7.375 C 6.515625 -7.375 7.097656 -6.550781 7.234375 -4.90625 C 7.296875 -4.320312 7.328125 -3.519531 7.328125 -2.5 L 7.3125 -1.296875 C 7.3125 -0.847656 7.320312 -0.414062 7.34375 0 C 7.25 0.0625 7.171875 0.09375 7.109375 0.09375 C 7.078125 0.0820312 7.007812 0.0664062 6.90625 0.046875 C 6.800781 0.0234375 6.671875 0.0078125 6.515625 0 C 6.410156 -0.40625 6.351562 -0.816406 6.34375 -1.234375 C 6.332031 -1.660156 6.328125 -2.050781 6.328125 -2.40625 Z M 6.34375 -3.328125 "/></g></g></g><g fill="#000000" fill-opacity="1"><g transform="translate(232.971484, 261.861252)"><g><path d="M 4.8125 6.515625 L 4.59375 6.5 C 4.289062 6.5 3.96875 6.519531 3.625 6.5625 L 3.046875 6.5625 C 2.429688 6.5625 1.953125 6.441406 1.609375 6.203125 C 1.429688 6.085938 1.34375 5.90625 1.34375 5.65625 L 4.84375 5.484375 C 5.914062 5.460938 6.453125 4.882812 6.453125 3.75 C 6.453125 3.71875 6.453125 3.648438 6.453125 3.546875 C 6.453125 3.453125 6.453125 3.242188 6.453125 2.921875 L 6.53125 -1.984375 C 6.53125 -2.148438 6.523438 -2.289062 6.515625 -2.40625 C 4.867188 -0.875 3.285156 -0.109375 1.765625 -0.109375 C 1.628906 -0.109375 1.5 -0.113281 1.375 -0.125 C 0.6875 -0.125 0.34375 -0.421875 0.34375 -1.015625 C 0.363281 -1.484375 0.5 -2 0.75 -2.5625 C 1.007812 -3.125 1.335938 -3.664062 1.734375 -4.1875 C 2.140625 -4.707031 2.597656 -5.175781 3.109375 -5.59375 C 3.890625 -6.238281 4.644531 -6.5625 5.375 -6.5625 C 6.21875 -6.5625 6.914062 -6.109375 7.46875 -5.203125 C 7.632812 -2.785156 7.71875 -1.070312 7.71875 -0.0625 C 7.71875 0.945312 7.703125 1.773438 7.671875 2.421875 C 7.640625 3.078125 7.566406 3.671875 7.453125 4.203125 C 7.347656 4.742188 7.207031 5.171875 7.03125 5.484375 C 6.863281 5.804688 6.664062 6.035156 6.4375 6.171875 C 6.050781 6.398438 5.507812 6.515625 4.8125 6.515625 Z M 5.71875 -5.453125 C 5.59375 -5.484375 5.421875 -5.5 5.203125 -5.5 C 4.992188 -5.5 4.710938 -5.40625 4.359375 -5.21875 C 4.015625 -5.039062 3.6875 -4.804688 3.375 -4.515625 C 3.0625 -4.234375 2.769531 -3.914062 2.5 -3.5625 C 1.820312 -2.6875 1.484375 -1.988281 1.484375 -1.46875 C 1.484375 -1.3125 1.53125 -1.191406 1.625 -1.109375 C 1.695312 -1.066406 1.785156 -1.046875 1.890625 -1.046875 C 1.992188 -1.046875 2.144531 -1.0625 2.34375 -1.09375 C 2.550781 -1.132812 2.832031 -1.226562 3.1875 -1.375 C 3.539062 -1.519531 3.90625 -1.707031 4.28125 -1.9375 C 4.65625 -2.175781 4.992188 -2.4375 5.296875 -2.71875 C 6.003906 -3.375 6.359375 -4.007812 6.359375 -4.625 C 6.359375 -5 6.144531 -5.273438 5.71875 -5.453125 Z M 5.71875 -5.453125 "/></g></g></g><g fill="#000000" fill-opacity="1"><g transform="translate(247.2377, 261.861252)"><g><path d="M 7.453125 -7.46875 L 6.09375 -7.5 C 5.738281 -7.5 5.332031 -7.460938 4.875 -7.390625 C 4.851562 -6.992188 4.8125 -6.484375 4.75 -5.859375 C 4.53125 -3.628906 4.421875 -2.179688 4.421875 -1.515625 C 4.421875 -0.847656 4.429688 -0.378906 4.453125 -0.109375 L 3.03125 0 L 3.5 -7.515625 L 0.265625 -7.703125 C 0.179688 -7.703125 0.113281 -7.765625 0.0625 -7.890625 C 0.0195312 -8.023438 0 -8.144531 0 -8.25 C 0 -8.363281 0.046875 -8.488281 0.140625 -8.625 C 0.234375 -8.757812 0.335938 -8.828125 0.453125 -8.828125 C 1.191406 -8.796875 1.9375 -8.742188 2.6875 -8.671875 C 4.082031 -8.546875 5.265625 -8.484375 6.234375 -8.484375 L 7.1875 -8.515625 C 7.925781 -8.535156 8.660156 -8.617188 9.390625 -8.765625 C 9.546875 -8.734375 9.644531 -8.476562 9.6875 -8 C 9.695312 -7.894531 9.703125 -7.816406 9.703125 -7.765625 C 9.035156 -7.566406 8.285156 -7.46875 7.453125 -7.46875 Z M 7.453125 -7.46875 "/></g></g></g><g fill="#000000" fill-opacity="1"><g transform="translate(256.941167, 261.861252)"><g><path d="M 0.796875 -2.890625 C 0.796875 -4.085938 1.3125 -5.050781 2.34375 -5.78125 C 3.164062 -6.351562 4.15625 -6.703125 5.3125 -6.828125 C 5.375 -6.828125 5.515625 -6.828125 5.734375 -6.828125 C 5.953125 -6.828125 6.253906 -6.765625 6.640625 -6.640625 C 7.460938 -6.347656 8.03125 -5.84375 8.34375 -5.125 C 8.457031 -4.84375 8.515625 -4.601562 8.515625 -4.40625 C 8.515625 -4.207031 8.507812 -4.066406 8.5 -3.984375 C 8.5 -2.710938 8.019531 -1.710938 7.0625 -0.984375 C 6.164062 -0.316406 5.050781 0.015625 3.71875 0.015625 C 2.75 0.015625 2.019531 -0.207031 1.53125 -0.65625 C 1.039062 -1.101562 0.796875 -1.847656 0.796875 -2.890625 Z M 1.84375 -2.53125 C 1.84375 -1.894531 2.007812 -1.46875 2.34375 -1.25 C 2.59375 -1.082031 3.015625 -1 3.609375 -1 C 4.210938 -1 4.742188 -1.046875 5.203125 -1.140625 C 5.660156 -1.234375 6.066406 -1.390625 6.421875 -1.609375 C 7.179688 -2.097656 7.5625 -2.851562 7.5625 -3.875 C 7.5625 -4.488281 7.398438 -4.988281 7.078125 -5.375 C 6.722656 -5.789062 6.253906 -6 5.671875 -6 C 5.273438 -5.925781 4.875 -5.847656 4.46875 -5.765625 C 4.070312 -5.679688 3.695312 -5.523438 3.34375 -5.296875 C 2.570312 -4.796875 2.070312 -3.875 1.84375 -2.53125 Z M 1.84375 -2.53125 "/></g></g></g><g fill="#000000" fill-opacity="1"><g transform="translate(265.701665, 261.861252)"><g><path d="M 1.671875 -0.25 C 1.253906 -0.0703125 0.976562 0.015625 0.84375 0.015625 C 0.707031 0.015625 0.613281 0 0.5625 -0.03125 C 0.507812 -0.0625 0.453125 -0.132812 0.390625 -0.25 C 0.390625 -0.582031 0.398438 -1 0.421875 -1.5 C 0.453125 -2.007812 0.476562 -2.550781 0.5 -3.125 C 0.519531 -3.707031 0.53125 -4.289062 0.53125 -4.875 C 0.53125 -5.46875 0.5 -6.007812 0.4375 -6.5 C 0.4375 -6.820312 0.65625 -6.984375 1.09375 -6.984375 C 1.195312 -6.984375 1.273438 -6.800781 1.328125 -6.4375 C 1.390625 -6.070312 1.429688 -5.785156 1.453125 -5.578125 C 1.472656 -5.378906 1.492188 -5.234375 1.515625 -5.140625 C 1.785156 -5.617188 2.3125 -5.992188 3.09375 -6.265625 C 3.507812 -6.398438 3.898438 -6.46875 4.265625 -6.46875 C 4.628906 -6.46875 4.945312 -6.421875 5.21875 -6.328125 C 5.5 -6.242188 5.738281 -6.085938 5.9375 -5.859375 C 6.132812 -5.628906 6.234375 -5.328125 6.234375 -4.953125 C 6.503906 -5.453125 7.097656 -5.898438 8.015625 -6.296875 C 8.859375 -6.671875 9.613281 -6.859375 10.28125 -6.859375 C 11.25 -6.859375 11.722656 -6.492188 11.703125 -5.765625 L 12.015625 -0.109375 C 12.015625 -0.0546875 11.867188 -0.0195312 11.578125 0 C 11.003906 0.0390625 10.71875 -0.0078125 10.71875 -0.15625 C 10.707031 -0.351562 10.703125 -0.554688 10.703125 -0.765625 L 10.78125 -3.203125 C 10.78125 -4.347656 10.671875 -5.257812 10.453125 -5.9375 C 9.785156 -5.882812 9.269531 -5.773438 8.90625 -5.609375 C 8.539062 -5.441406 8.222656 -5.234375 7.953125 -4.984375 C 7.679688 -4.734375 7.4375 -4.398438 7.21875 -3.984375 C 6.75 -3.054688 6.515625 -1.820312 6.515625 -0.28125 C 6.453125 -0.0625 6.253906 0.046875 5.921875 0.046875 C 5.691406 0.046875 5.503906 0.0078125 5.359375 -0.0625 C 5.222656 -0.144531 5.171875 -0.21875 5.203125 -0.28125 C 5.390625 -1.351562 5.484375 -2.1875 5.484375 -2.78125 C 5.484375 -3.257812 5.4375 -3.710938 5.34375 -4.140625 C 5.25 -4.578125 5.128906 -5.070312 4.984375 -5.625 C 3.523438 -5.625 2.539062 -5.039062 2.03125 -3.875 C 1.8125 -3.363281 1.6875 -2.878906 1.65625 -2.421875 C 1.632812 -1.972656 1.625 -1.585938 1.625 -1.265625 C 1.625 -0.953125 1.640625 -0.613281 1.671875 -0.25 Z M 1.671875 -0.25 "/></g></g></g><g fill="#000000" fill-opacity="1"><g transform="translate(277.823406, 261.861252)"><g><path d="M 0.796875 -2.890625 C 0.796875 -4.085938 1.3125 -5.050781 2.34375 -5.78125 C 3.164062 -6.351562 4.15625 -6.703125 5.3125 -6.828125 C 5.375 -6.828125 5.515625 -6.828125 5.734375 -6.828125 C 5.953125 -6.828125 6.253906 -6.765625 6.640625 -6.640625 C 7.460938 -6.347656 8.03125 -5.84375 8.34375 -5.125 C 8.457031 -4.84375 8.515625 -4.601562 8.515625 -4.40625 C 8.515625 -4.207031 8.507812 -4.066406 8.5 -3.984375 C 8.5 -2.710938 8.019531 -1.710938 7.0625 -0.984375 C 6.164062 -0.316406 5.050781 0.015625 3.71875 0.015625 C 2.75 0.015625 2.019531 -0.207031 1.53125 -0.65625 C 1.039062 -1.101562 0.796875 -1.847656 0.796875 -2.890625 Z M 1.84375 -2.53125 C 1.84375 -1.894531 2.007812 -1.46875 2.34375 -1.25 C 2.59375 -1.082031 3.015625 -1 3.609375 -1 C 4.210938 -1 4.742188 -1.046875 5.203125 -1.140625 C 5.660156 -1.234375 6.066406 -1.390625 6.421875 -1.609375 C 7.179688 -2.097656 7.5625 -2.851562 7.5625 -3.875 C 7.5625 -4.488281 7.398438 -4.988281 7.078125 -5.375 C 6.722656 -5.789062 6.253906 -6 5.671875 -6 C 5.273438 -5.925781 4.875 -5.847656 4.46875 -5.765625 C 4.070312 -5.679688 3.695312 -5.523438 3.34375 -5.296875 C 2.570312 -4.796875 2.070312 -3.875 1.84375 -2.53125 Z M 1.84375 -2.53125 "/></g></g></g><g fill="#000000" fill-opacity="1"><g transform="translate(286.583904, 261.861252)"><g><path d="M 7.875 -5.546875 C 7.445312 -5.859375 6.898438 -6.015625 6.234375 -6.015625 C 5.609375 -6.015625 5.023438 -5.894531 4.484375 -5.65625 C 3.472656 -5.226562 2.78125 -4.679688 2.40625 -4.015625 C 2.238281 -3.710938 2.15625 -3.390625 2.15625 -3.046875 C 2.15625 -2.984375 2.15625 -2.8125 2.15625 -2.53125 C 2.15625 -2.25 2.207031 -1.875 2.3125 -1.40625 C 2.414062 -0.9375 2.46875 -0.457031 2.46875 0.03125 C 2.25 0.0390625 2.070312 0.0664062 1.9375 0.109375 C 1.8125 0.148438 1.703125 0.171875 1.609375 0.171875 C 1.515625 0.171875 1.4375 0.128906 1.375 0.046875 C 1.3125 -0.0351562 1.238281 -0.191406 1.15625 -0.421875 C 1.144531 -0.484375 1.125 -0.65625 1.09375 -0.9375 C 1.0625 -1.226562 1.019531 -1.578125 0.96875 -1.984375 C 0.925781 -2.390625 0.878906 -2.832031 0.828125 -3.3125 C 0.773438 -3.789062 0.722656 -4.265625 0.671875 -4.734375 C 0.554688 -5.742188 0.46875 -6.488281 0.40625 -6.96875 C 0.40625 -7.207031 0.582031 -7.328125 0.9375 -7.328125 C 1.15625 -7.328125 1.320312 -7.238281 1.4375 -7.0625 C 1.5625 -6.882812 1.660156 -6.679688 1.734375 -6.453125 C 1.804688 -6.222656 1.851562 -6 1.875 -5.78125 C 1.90625 -5.5625 1.929688 -5.40625 1.953125 -5.3125 C 3.285156 -6.507812 4.945312 -7.109375 6.9375 -7.109375 C 7.15625 -7.109375 7.390625 -7.101562 7.640625 -7.09375 C 7.703125 -7.101562 7.773438 -7.109375 7.859375 -7.109375 C 7.953125 -7.109375 8.046875 -7.046875 8.140625 -6.921875 C 8.253906 -6.773438 8.3125 -6.601562 8.3125 -6.40625 C 8.3125 -5.894531 8.164062 -5.609375 7.875 -5.546875 Z M 7.875 -5.546875 "/></g></g></g><g fill="#000000" fill-opacity="1"><g transform="translate(295.177089, 261.861252)"><g><path d="M 7.875 -5.546875 C 7.445312 -5.859375 6.898438 -6.015625 6.234375 -6.015625 C 5.609375 -6.015625 5.023438 -5.894531 4.484375 -5.65625 C 3.472656 -5.226562 2.78125 -4.679688 2.40625 -4.015625 C 2.238281 -3.710938 2.15625 -3.390625 2.15625 -3.046875 C 2.15625 -2.984375 2.15625 -2.8125 2.15625 -2.53125 C 2.15625 -2.25 2.207031 -1.875 2.3125 -1.40625 C 2.414062 -0.9375 2.46875 -0.457031 2.46875 0.03125 C 2.25 0.0390625 2.070312 0.0664062 1.9375 0.109375 C 1.8125 0.148438 1.703125 0.171875 1.609375 0.171875 C 1.515625 0.171875 1.4375 0.128906 1.375 0.046875 C 1.3125 -0.0351562 1.238281 -0.191406 1.15625 -0.421875 C 1.144531 -0.484375 1.125 -0.65625 1.09375 -0.9375 C 1.0625 -1.226562 1.019531 -1.578125 0.96875 -1.984375 C 0.925781 -2.390625 0.878906 -2.832031 0.828125 -3.3125 C 0.773438 -3.789062 0.722656 -4.265625 0.671875 -4.734375 C 0.554688 -5.742188 0.46875 -6.488281 0.40625 -6.96875 C 0.40625 -7.207031 0.582031 -7.328125 0.9375 -7.328125 C 1.15625 -7.328125 1.320312 -7.238281 1.4375 -7.0625 C 1.5625 -6.882812 1.660156 -6.679688 1.734375 -6.453125 C 1.804688 -6.222656 1.851562 -6 1.875 -5.78125 C 1.90625 -5.5625 1.929688 -5.40625 1.953125 -5.3125 C 3.285156 -6.507812 4.945312 -7.109375 6.9375 -7.109375 C 7.15625 -7.109375 7.390625 -7.101562 7.640625 -7.09375 C 7.703125 -7.101562 7.773438 -7.109375 7.859375 -7.109375 C 7.953125 -7.109375 8.046875 -7.046875 8.140625 -6.921875 C 8.253906 -6.773438 8.3125 -6.601562 8.3125 -6.40625 C 8.3125 -5.894531 8.164062 -5.609375 7.875 -5.546875 Z M 7.875 -5.546875 "/></g></g></g><g fill="#000000" fill-opacity="1"><g transform="translate(303.770274, 261.861252)"><g><path d="M 0.796875 -2.890625 C 0.796875 -4.085938 1.3125 -5.050781 2.34375 -5.78125 C 3.164062 -6.351562 4.15625 -6.703125 5.3125 -6.828125 C 5.375 -6.828125 5.515625 -6.828125 5.734375 -6.828125 C 5.953125 -6.828125 6.253906 -6.765625 6.640625 -6.640625 C 7.460938 -6.347656 8.03125 -5.84375 8.34375 -5.125 C 8.457031 -4.84375 8.515625 -4.601562 8.515625 -4.40625 C 8.515625 -4.207031 8.507812 -4.066406 8.5 -3.984375 C 8.5 -2.710938 8.019531 -1.710938 7.0625 -0.984375 C 6.164062 -0.316406 5.050781 0.015625 3.71875 0.015625 C 2.75 0.015625 2.019531 -0.207031 1.53125 -0.65625 C 1.039062 -1.101562 0.796875 -1.847656 0.796875 -2.890625 Z M 1.84375 -2.53125 C 1.84375 -1.894531 2.007812 -1.46875 2.34375 -1.25 C 2.59375 -1.082031 3.015625 -1 3.609375 -1 C 4.210938 -1 4.742188 -1.046875 5.203125 -1.140625 C 5.660156 -1.234375 6.066406 -1.390625 6.421875 -1.609375 C 7.179688 -2.097656 7.5625 -2.851562 7.5625 -3.875 C 7.5625 -4.488281 7.398438 -4.988281 7.078125 -5.375 C 6.722656 -5.789062 6.253906 -6 5.671875 -6 C 5.273438 -5.925781 4.875 -5.847656 4.46875 -5.765625 C 4.070312 -5.679688 3.695312 -5.523438 3.34375 -5.296875 C 2.570312 -4.796875 2.070312 -3.875 1.84375 -2.53125 Z M 1.84375 -2.53125 "/></g></g></g><g fill="#000000" fill-opacity="1"><g transform="translate(312.530771, 261.861252)"><g><path d="M 6.1875 -4.203125 C 5.96875 -3.460938 5.785156 -2.773438 5.640625 -2.140625 C 5.492188 -1.515625 5.347656 -0.992188 5.203125 -0.578125 C 4.984375 0.015625 4.726562 0.3125 4.4375 0.3125 C 4.289062 0.3125 4.117188 0.242188 3.921875 0.109375 C 3.453125 -0.390625 2.796875 -1.488281 1.953125 -3.1875 C 1.117188 -4.851562 0.703125 -5.894531 0.703125 -6.3125 C 0.703125 -6.5 0.753906 -6.613281 0.859375 -6.65625 C 0.972656 -6.695312 1.101562 -6.695312 1.25 -6.65625 C 1.59375 -6.5625 1.835938 -6.40625 1.984375 -6.1875 C 2.046875 -6.09375 2.128906 -5.914062 2.234375 -5.65625 L 2.609375 -4.71875 C 3.035156 -3.65625 3.457031 -2.679688 3.875 -1.796875 C 4.101562 -2.140625 4.316406 -2.585938 4.515625 -3.140625 L 4.984375 -4.4375 C 5.390625 -5.582031 5.753906 -6.164062 6.078125 -6.1875 C 6.335938 -6.351562 7.097656 -5.457031 8.359375 -3.5 C 8.898438 -2.664062 9.238281 -2.171875 9.375 -2.015625 C 9.46875 -2.015625 9.578125 -2.316406 9.703125 -2.921875 C 9.828125 -3.523438 9.9375 -4.035156 10.03125 -4.453125 C 10.125 -4.878906 10.242188 -5.273438 10.390625 -5.640625 C 10.722656 -6.492188 11.109375 -6.921875 11.546875 -6.921875 C 11.691406 -6.921875 11.789062 -6.875 11.84375 -6.78125 C 11.894531 -6.6875 11.921875 -6.609375 11.921875 -6.546875 C 11.921875 -6.484375 11.921875 -6.4375 11.921875 -6.40625 C 11.804688 -6.0625 11.679688 -5.664062 11.546875 -5.21875 C 11.410156 -4.78125 11.269531 -4.328125 11.125 -3.859375 C 10.976562 -3.398438 10.832031 -2.945312 10.6875 -2.5 C 10.539062 -2.050781 10.394531 -1.644531 10.25 -1.28125 C 9.914062 -0.488281 9.640625 -0.0625 9.421875 0 C 9.242188 0.0820312 8.960938 -0.113281 8.578125 -0.59375 C 8.410156 -0.8125 8.226562 -1.070312 8.03125 -1.375 C 7.84375 -1.6875 7.640625 -2.003906 7.421875 -2.328125 C 6.898438 -3.140625 6.488281 -3.765625 6.1875 -4.203125 Z M 6.1875 -4.203125 "/></g></g></g></svg>